<svg width="641" height="128" viewBox="0 0 641 128" fill="none" xmlns="http://www.w3.org/2000/svg">
<path d="M243.698 61.9737H242.858C242.764 61.9609 242.672 62.0093 242.632 62.0931L241.575 65.169C241.56 65.1747 241.543 65.1747 241.528 65.169L240.48 62.1114C240.442 62.019 240.346 61.9625 240.244 61.9737H239.414C239.353 61.9541 239.286 61.9541 239.225 61.9737C239.183 62.0255 239.162 62.0913 239.169 62.1573V69.8519C239.154 69.9185 239.176 69.9875 239.225 70.0356C239.274 70.0837 239.345 70.1044 239.414 70.0906H240.357C240.425 70.0966 240.493 70.0769 240.546 70.0355C240.59 69.9842 240.61 69.918 240.603 69.8519V66.6382C240.603 66.6382 240.65 66.6382 240.659 66.6382L241.018 67.74C241.05 67.8524 241.164 67.9235 241.282 67.9053H241.745C241.914 67.9053 242.018 67.8502 242.047 67.74L242.433 66.6749H242.481V69.8886C242.471 69.9543 242.494 70.0206 242.542 70.0676C242.59 70.1145 242.658 70.1367 242.726 70.1273H243.67C243.737 70.1367 243.805 70.1145 243.853 70.0676C243.902 70.0206 243.924 69.9543 243.915 69.8886V62.2308C243.921 62.1648 243.901 62.099 243.858 62.0472C243.814 62.0076 243.758 61.982 243.698 61.9737Z" fill="#997520"/>
<path fill-rule="evenodd" clip-rule="evenodd" d="M247.041 61.9742C247.1 61.9539 247.165 61.9539 247.225 61.9742C247.274 62.0374 247.3 62.1154 247.298 62.1953L248.649 69.9504C248.695 70.0332 248.649 70.1161 248.649 70.1161C248.593 70.1339 248.532 70.1339 248.475 70.1161H247.381H247.307C247.277 70.0831 247.257 70.0412 247.252 69.9964L247.114 69.0754C247.103 69.005 247.081 68.9367 247.05 68.8728C246.987 68.8555 246.92 68.8555 246.857 68.8728H246.416C246.352 68.8555 246.286 68.8555 246.223 68.8728C246.158 68.8912 246.158 68.9649 246.158 69.0754L246.011 69.9964C246.014 70.0411 245.997 70.0846 245.965 70.1161C245.938 70.1253 245.909 70.1253 245.883 70.1161H244.669C244.64 70.1093 244.616 70.0887 244.605 70.0609C244.593 70.0156 244.593 69.968 244.605 69.9227L245.965 62.1492C245.967 62.0853 245.989 62.0237 246.03 61.9742C246.093 61.9556 246.16 61.9556 246.223 61.9742H247.041ZM246.691 67.6017H246.884C246.903 67.5833 246.903 67.5188 246.884 67.3991L246.655 65.8426H246.609H246.563L246.324 67.3991C246.313 67.4662 246.313 67.5346 246.324 67.6017H246.526H246.691Z" fill="#997520"/>
<path d="M253.163 62.0199H252.184C252.12 62.0002 252.052 62.0002 251.988 62.0199C251.944 62.0719 251.923 62.138 251.929 62.2043V65.487L250.725 62.1213C250.685 62.0234 250.58 61.9628 250.47 61.9738H249.608C249.544 61.9541 249.476 61.9541 249.412 61.9738C249.368 62.0258 249.347 62.0919 249.353 62.1582V69.8855C249.339 69.9524 249.361 70.0217 249.412 70.07C249.463 70.1183 249.537 70.1391 249.608 70.1252H250.587C250.658 70.1391 250.732 70.1183 250.783 70.07C250.835 70.0217 250.857 69.9524 250.842 69.8855V66.6581L252.047 69.9869C252.088 70.0777 252.187 70.1333 252.292 70.1252H253.163C253.234 70.1391 253.308 70.1183 253.359 70.07C253.411 70.0217 253.433 69.9524 253.418 69.8855V62.2781C253.424 62.2118 253.403 62.1457 253.359 62.0936C253.305 62.0485 253.236 62.0224 253.163 62.0199Z" fill="#997520"/>
<path d="M276.859 63.3993C276.936 63.3149 277.054 63.2678 277.176 63.2721C277.306 63.2669 277.428 63.3265 277.493 63.4266C277.567 63.5104 277.613 63.6113 277.626 63.7175C277.626 63.8083 277.626 63.9356 277.626 64.0901C277.62 64.154 277.638 64.218 277.677 64.2719C277.735 64.3128 277.808 64.3324 277.881 64.3264H278.904C279.078 64.3264 279.17 64.2264 279.17 64.0356C279.205 63.4891 279.016 62.9499 278.638 62.5177C278.252 62.131 277.685 61.9261 277.104 61.9633C276.561 61.9308 276.029 62.1138 275.652 62.4632C275.31 62.8298 275.131 63.2958 275.151 63.772C275.142 64.193 275.233 64.611 275.417 64.999C275.728 65.5145 276.109 65.9938 276.552 66.4259C276.849 66.7138 277.125 67.0173 277.38 67.3348C277.532 67.5378 277.62 67.7731 277.636 68.0165C277.636 68.1983 277.636 68.3346 277.636 68.4255C277.624 68.5192 277.581 68.6076 277.513 68.68C277.441 68.7697 277.32 68.8182 277.196 68.8072C277.069 68.8143 276.947 68.7584 276.879 68.6618C276.814 68.5745 276.772 68.475 276.757 68.371C276.757 68.2801 276.757 68.1528 276.757 67.9892C276.765 67.9265 276.743 67.8635 276.695 67.8165C276.638 67.7756 276.564 67.7561 276.491 67.762H275.468C275.294 67.762 275.202 67.8529 275.202 68.0528C275.173 68.5986 275.362 69.1359 275.734 69.5707C276.12 69.9574 276.687 70.1623 277.268 70.1251C277.811 70.1576 278.343 69.9746 278.72 69.6252C279.067 69.2608 279.246 68.7933 279.221 68.3164C279.234 67.9006 279.154 67.4867 278.986 67.0985C278.684 66.5807 278.305 66.1009 277.861 65.6716C277.55 65.3732 277.269 65.0508 277.022 64.7081C276.869 64.5129 276.78 64.2828 276.767 64.0447C276.767 63.8629 276.767 63.7265 276.767 63.6357C276.777 63.5516 276.808 63.4707 276.859 63.3993Z" fill="#997520"/>
<path d="M257.875 62.0199H256.903C256.843 62.0015 256.778 62.0015 256.718 62.0199C256.674 62.0719 256.654 62.138 256.66 62.2043V65.4881L255.464 62.1213C255.425 62.0234 255.321 61.9628 255.211 61.9737H254.346C254.286 61.9541 254.221 61.9541 254.161 61.9737C254.118 62.0258 254.097 62.0919 254.103 62.1582V69.888C254.096 69.9544 254.117 70.0208 254.161 70.0724C254.212 70.1154 254.279 70.1356 254.346 70.1278H255.318C255.388 70.1338 255.458 70.114 255.513 70.0724C255.55 70.0177 255.567 69.9528 255.561 69.888V66.6595H255.61L256.815 69.9894C256.854 70.0823 256.954 70.139 257.058 70.1278H257.924C257.994 70.1338 258.063 70.114 258.118 70.0724C258.155 70.0177 258.172 69.9528 258.167 69.888V62.2781C258.188 62.2128 258.169 62.1417 258.118 62.0934C258.067 62.0451 257.993 62.0274 257.924 62.0475L257.875 62.0199Z" fill="#997520"/>
<path d="M274.796 61.9677H273.781C273.709 61.9463 273.631 61.965 273.578 62.0163C273.525 62.0676 273.505 62.143 273.528 62.2122V68.288C273.535 68.5538 273.511 68.8197 273.456 69.0804C273.456 69.237 273.284 69.3055 273.071 69.3055C272.948 69.3194 272.827 69.2667 272.756 69.1685C272.686 69.0734 272.644 68.9619 272.634 68.8456C272.634 68.7282 272.634 68.5423 272.634 68.288V62.2416C272.641 62.1712 272.619 62.1011 272.573 62.0459C272.508 62.025 272.436 62.025 272.37 62.0459H271.355C271.289 62.0263 271.219 62.0263 271.153 62.0459C271.107 62.1011 271.085 62.1712 271.092 62.2416V68.2684C271.02 68.9563 271.195 69.6472 271.589 70.2251C272.443 71.0054 273.78 71.0054 274.634 70.2251C275.034 69.6499 275.21 68.9568 275.131 68.2684V62.2416C275.138 62.1712 275.116 62.1011 275.07 62.0459C274.999 61.976 274.895 61.9464 274.796 61.9677Z" fill="#997520"/>
<path d="M282.378 61.9738H279.507C279.439 61.9541 279.365 61.9541 279.297 61.9738C279.25 62.0259 279.227 62.0921 279.234 62.1585V69.8975C279.22 69.9522 279.22 70.009 279.234 70.0637C279.234 70.0637 279.297 70.1284 279.328 70.1284H282.336C282.412 70.1344 282.487 70.1146 282.546 70.073C282.586 70.0182 282.605 69.9532 282.598 69.8883V69.0202C282.603 68.9582 282.585 68.8966 282.546 68.8447C282.487 68.8031 282.412 68.7832 282.336 68.7893H281.068C280.932 68.7893 280.859 68.7893 280.838 68.7893C280.819 68.7226 280.819 68.6528 280.838 68.5861V66.7391C280.838 66.619 280.838 66.5544 280.838 66.5359C280.838 66.5174 280.932 66.5359 281.068 66.5359H282.347C282.422 66.542 282.497 66.5221 282.557 66.4805C282.595 66.4252 282.614 66.3607 282.609 66.2958V65.4277C282.632 65.3623 282.612 65.2911 282.557 65.2427C282.502 65.1944 282.421 65.1767 282.347 65.1968H281.068C280.932 65.1968 280.859 65.1968 280.838 65.1968C280.818 65.1271 280.818 65.0541 280.838 64.9844V63.5437C280.838 63.4237 280.838 63.359 280.838 63.3406C280.838 63.3221 280.932 63.3406 281.068 63.3406H282.347C282.422 63.3466 282.497 63.3268 282.557 63.2852C282.595 63.2299 282.614 63.1653 282.609 63.1005V62.2324C282.632 62.167 282.612 62.0958 282.557 62.0474C282.502 61.999 282.421 61.9814 282.347 62.0015L282.378 61.9738Z" fill="#997520"/>
<path fill-rule="evenodd" clip-rule="evenodd" d="M266.828 62.5244C267.218 62.1338 267.77 61.9307 268.334 61.9713C268.905 61.9071 269.475 62.0968 269.88 62.4856C270.281 63.0562 270.457 63.7437 270.378 64.4265V68.2889C270.457 68.9718 270.281 69.6593 269.88 70.2299C269.024 71.0038 267.684 71.0038 266.828 70.2299C266.438 69.6551 266.266 68.9701 266.34 68.2889V64.4653C266.267 63.7843 266.439 63.0998 266.828 62.5244ZM268.72 69.0847C268.78 68.8268 268.804 68.5625 268.791 68.2987V64.4168V63.8442C268.782 63.732 268.739 63.6245 268.669 63.5337C268.595 63.4342 268.472 63.379 268.344 63.3881C268.175 63.3671 268.016 63.4658 267.967 63.621C267.907 63.8821 267.883 64.1497 267.896 64.4168V68.2987V68.8518C267.906 68.9671 267.948 69.0778 268.018 69.1721C268.089 69.2695 268.21 69.3218 268.334 69.3079C268.547 69.3079 268.669 69.24 268.72 69.0847Z" fill="#997520"/>
<path d="M265.503 61.9671H264.586C264.521 61.9471 264.45 61.9647 264.402 62.0127C264.354 62.0606 264.337 62.1313 264.357 62.1961V64.9444C264.374 65.0135 264.374 65.0859 264.357 65.1551C264.287 65.1715 264.215 65.1715 264.146 65.1551H263.797C263.731 65.1718 263.662 65.1718 263.596 65.1551C263.578 65.0859 263.578 65.0135 263.596 64.9444V62.2236C263.602 62.1577 263.582 62.0921 263.541 62.0404C263.484 62.0222 263.423 62.0222 263.366 62.0404H262.449C262.39 62.022 262.326 62.022 262.266 62.0404C262.244 62.0994 262.244 62.1646 262.266 62.2236V69.9004C262.249 69.9541 262.249 70.0116 262.266 70.0653C262.266 70.0653 262.321 70.1294 262.339 70.1294H263.504C263.504 70.1294 263.559 70.1294 263.577 70.0653C263.61 70.0166 263.626 69.9588 263.623 69.9004V66.7124C263.623 66.5933 263.623 66.5292 263.623 66.5109C263.689 66.4942 263.759 66.4942 263.825 66.5109H264.1C264.169 66.4945 264.242 66.4945 264.311 66.5109C264.311 66.5109 264.311 66.5933 264.311 66.7124V69.8729C264.294 69.9266 264.294 69.9842 264.311 70.0378C264.311 70.0378 264.366 70.1019 264.393 70.1019H265.549C265.549 70.1019 265.604 70.1019 265.631 70.0378C265.648 69.9842 265.648 69.9266 265.631 69.8729V62.2236C265.651 62.1587 265.634 62.0881 265.586 62.0401C265.538 61.9921 265.467 61.9746 265.402 61.9946L265.503 61.9671Z" fill="#997520"/>
<path fill-rule="evenodd" clip-rule="evenodd" d="M260.664 61.9742C260.724 61.9539 260.788 61.9539 260.848 61.9742C260.885 62.0019 260.903 62.0571 260.922 62.1953L262.229 69.9509C262.275 70.0338 262.229 70.1167 262.229 70.1167C262.175 70.1337 262.117 70.1337 262.063 70.1167H260.958C260.934 70.1234 260.909 70.1234 260.885 70.1167C260.854 70.0837 260.835 70.0417 260.83 69.997L260.691 69.0759C260.685 69.0045 260.663 68.9353 260.627 68.8732C260.564 68.856 260.497 68.856 260.434 68.8732H259.992C259.929 68.856 259.862 68.856 259.799 68.8732C259.767 68.9371 259.745 69.0055 259.734 69.0759L259.596 69.997C259.591 70.0417 259.571 70.0837 259.541 70.1167C259.517 70.1234 259.491 70.1234 259.467 70.1167H258.252C258.188 70.1167 258.188 70.0614 258.188 70.0614C258.171 70.0168 258.171 69.9679 258.188 69.9233L259.541 62.1493C259.559 62.0571 259.614 61.9742 259.614 61.9742C259.674 61.9539 259.739 61.9539 259.799 61.9742H260.664ZM260.314 67.6021H260.507C260.526 67.5837 260.526 67.5192 260.507 67.4363L260.277 65.8797H260.231H260.185L259.992 67.3995V67.6021H260.185H260.314Z" fill="#997520"/>
<path d="M260.534 56.8314L249.864 49.7036L238.485 57.3085L239.203 58.5452L249.864 51.4174L260.534 58.5549L271.204 51.4174L281.901 58.5452L282.618 57.2988L271.204 49.7036L260.534 56.8314Z" fill="#997520"/>
<path fill-rule="evenodd" clip-rule="evenodd" d="M124.163 2.04248H123.061V3.1765V5.53527V6.54229V8.96456V9.93529V12.4301V13.3374V15.8776V16.7122V19.3431V20.1143V22.8359V23.5345H170.767L130.02 123.61L130.64 123.864H143.229H143.284H147.392H147.474H151.555H151.665H155.709L155.846 123.918L203.179 2.04248H124.163ZM131.113 122.784L171.614 23.2986L171.806 22.8178H124.163V20.0961H175.896L134.484 122.784H131.113ZM135.313 122.784H138.611L181.034 16.7213H124.199V19.3522H177.035L176.825 19.8784L135.313 122.784ZM142.746 122.784H139.512L182.036 16.4582L182.263 15.8866H124.163V13.3283H186.162L142.746 122.784ZM143.712 122.784H146.873L191.291 9.93529H124.163V12.4301H187.492L143.712 122.784ZM151 122.784H147.921L192.421 9.62683L192.685 8.96456H124.163V6.54229H196.429L151 122.784ZM152.12 122.784H155.135L201.594 3.1765H124.163V5.49898H197.95L152.12 122.784Z" fill="#997520"/>
<path fill-rule="evenodd" clip-rule="evenodd" d="M64.4064 103.702C53.9241 103.702 44.3627 100.003 37.5009 93.2933C30.1064 86.0395 26.197 75.8207 26.197 63.7069C26.197 44.5842 39.09 24.2554 62.9709 24.2554C76.1029 24.1008 88.4701 30.4447 96.043 41.2202L96.1513 41.3744L113.179 24.201L112.8 23.793C100.566 8.66889 83.7459 0.680664 64.1536 0.680664C46.4574 0.680664 30.3411 6.76477 18.7664 17.8177C6.59567 29.4419 0.167236 45.4909 0.167236 64.2782C0.167236 101.399 26.838 127.323 65.0204 127.323C85.4884 127.323 102.21 119.543 114.678 104.201L114.913 103.902L98.2008 86.1936C89.7048 97.8269 78.3377 103.702 64.4064 103.702ZM113.468 103.92C101.234 118.681 84.9377 126.171 65.0204 126.171C27.4881 126.171 1.27777 100.701 1.27777 64.2419C1.27777 45.8082 7.59785 30.0313 19.5338 18.6247C30.8648 7.77123 46.7463 1.78687 64.1536 1.78687C83.2493 1.78687 99.6635 9.5212 111.654 24.1557L109.703 26.1142C98.2099 11.9603 82.4096 4.47983 63.955 4.47983C47.613 4.47983 32.6705 10.165 21.8361 20.4835C10.4238 31.4004 4.37461 46.5064 4.37461 64.1512C4.37461 99.0872 29.2758 123.487 64.912 123.487C84.08 123.487 99.7538 116.233 111.536 101.862L113.468 103.92ZM64.912 122.426C83.791 122.426 99.2301 115.236 110.814 101.091L108.855 98.9966C97.7223 112.715 82.9153 119.679 64.8127 119.679C31.7135 119.679 8.59101 96.8113 8.59101 64.0605C8.59101 47.5219 14.252 33.368 24.933 23.1402C34.9819 13.5561 48.7687 8.279 63.7564 8.279C81.263 8.279 96.1694 15.4058 106.95 28.916L108.945 26.8668C97.6591 12.9214 82.1207 5.53163 63.955 5.53163C47.8658 5.53163 33.1942 11.117 22.5855 21.2451C11.3628 31.9626 5.43097 46.8056 5.43097 64.1512C5.43097 98.4616 29.8897 122.426 64.912 122.426ZM108.159 98.2712C97.2257 111.809 82.6534 118.681 64.8127 118.681C32.3094 118.681 9.58417 96.222 9.58417 64.0605C9.58417 47.803 15.1368 33.8939 25.6372 23.8655C35.4875 14.4628 49.0215 9.27639 63.7564 9.27639C80.9831 9.27639 95.6547 16.3035 106.236 29.587L104.205 31.6362C94.2734 19.0327 79.8726 12.0963 63.5758 12.0963C49.9334 12.0963 37.3294 16.9654 28.0659 25.8059C18.0711 35.3265 12.8074 48.5284 12.8074 63.9789C12.8074 94.5355 34.1603 115.88 64.7224 115.88C81.7596 115.88 95.6999 109.224 106.173 96.1404L108.159 98.2712ZM64.7134 114.937C81.4977 114.937 95.2123 108.372 105.514 95.4513L103.483 93.2842C93.6504 105.733 80.5768 112.081 64.6141 112.081C36.58 112.081 17.0148 92.2596 17.0148 63.8883C17.0148 32.3706 40.3269 15.8864 63.3681 15.8864C78.7169 15.8864 92.26 22.4511 101.46 34.3563L103.51 32.2981C93.7497 19.8669 79.5927 13.0212 63.5306 13.0212C50.132 13.0212 37.7537 17.7996 28.6708 26.486C18.8837 35.8706 13.7103 48.8004 13.7103 63.9789C13.7103 93.9824 34.702 114.937 64.7134 114.937ZM102.869 92.6313C93.1989 104.936 80.2969 111.192 64.6141 111.192C37.1036 111.192 17.8906 91.7428 17.8906 63.8883C17.8906 32.9509 40.7693 16.7387 63.3681 16.7387C78.5002 16.7387 91.7634 23.2218 100.837 34.9729L98.7245 37.0946C90.2599 25.9975 77.0883 19.5482 63.1695 19.6856C42.3222 19.6856 21.2222 34.8369 21.2222 63.7976C21.2222 89.9837 39.0177 108.272 64.5057 108.272C79.4031 108.272 91.5918 102.261 100.801 90.419L102.869 92.6313ZM34.5305 95.9772C42.1597 103.376 52.7684 107.447 64.5057 107.447C79.1774 107.447 91.1855 101.508 100.223 89.8115L98.1196 87.5628C89.5514 98.7789 78.2203 104.473 64.4064 104.473C53.7164 104.473 43.9745 100.701 36.9682 93.8464C29.4202 86.4566 25.4476 76.0655 25.4295 63.6888C25.4295 48.3652 31.9121 38.9625 37.3294 33.767C44.2652 27.1912 53.4326 23.5119 62.9709 23.4757C75.9533 23.3445 88.2192 29.4413 95.9888 39.8873L98.1376 37.7384C89.8431 26.7742 76.88 20.3877 63.1695 20.5107C42.7375 20.5107 22.0438 35.3809 22.0438 63.7976C22.0438 76.936 26.4046 88.0615 34.5305 95.9772Z" fill="#997520"/>
<path fill-rule="evenodd" clip-rule="evenodd" d="M386.307 51.1521L374.481 49.1396C361.9 47.2354 356.05 42.6057 356.05 34.5827C356.05 27.8413 361.999 21.0456 375.29 21.0456C386.748 21.0456 396.39 25.919 404.793 35.9454L405.332 36.5952L405.566 36.875L405.979 37.2631L421.975 20.3327L421.661 20.0349L420.951 19.2948C408.621 6.3173 393.937 0 376.135 0C351.026 0 332.81 14.7554 332.81 35.0791C332.81 54.419 345.886 67.3424 369.655 71.4758L383.989 73.8132C395.959 75.8888 402.034 80.9698 402.034 88.9296C402.034 97.5121 394.063 102.846 381.23 102.846C362.601 102.846 353.264 94.0376 346.587 85.428L345.823 84.4353L345.742 84.4984L345.625 84.3721L329.467 99.8495L330.123 100.544L330.492 101.005C338.876 111.464 354.028 123.918 378.624 123.918C415.469 123.918 425.202 100.842 425.202 88.6318C425.238 68.1998 411.776 55.2493 386.307 51.1521ZM345.463 85.807L345.679 86.0958C352.518 94.922 362.089 103.947 381.185 103.947C394.665 103.947 403.076 98.1889 403.076 88.9296C403.085 80.32 396.687 74.9052 384.106 72.7392L369.799 70.3928C346.65 66.3587 333.898 53.8144 333.898 35.0701C333.898 15.3781 351.664 1.08297 376.135 1.08297C393.632 1.08297 408.055 7.2649 420.241 20.0349L420.618 20.432L418.758 22.4084L418.381 22.0023C406.635 9.48498 392.769 3.42037 376.018 3.42037C353.192 3.42037 336.629 16.7048 336.629 35.0069C336.629 52.4336 348.636 64.1026 370.446 67.8478L384.357 70.1311C398.592 72.5407 405.808 78.849 405.808 88.8844C405.808 97.5391 398.08 106.275 380.799 106.275C360.821 106.275 350.622 96.4923 343.954 87.973L343.666 87.5398L345.463 85.807ZM343.154 88.5776L342.911 88.2617L341.042 90.0847L341.365 90.4999C347.836 98.7394 358.916 109.695 380.376 109.695C394.449 109.695 409.601 103.162 409.601 88.8213C409.601 76.7101 401.234 69.1384 384.735 66.4309L371.255 64.2018C351.089 60.7905 340.431 50.6557 340.431 34.9166C340.431 18.6451 355.349 6.84074 375.892 6.84074C391.646 6.84074 404.694 12.6797 415.793 24.7007L416.188 25.1338L418.12 23.0943L417.707 22.652C406.159 10.3784 392.526 4.42211 376.036 4.42211C353.812 4.42211 337.636 17.2823 337.636 34.9979C337.636 51.8831 349.354 63.2452 370.626 66.8551L384.483 69.1384C399.266 71.6472 406.77 78.2804 406.77 88.8754C406.77 98.0265 398.736 107.268 380.763 107.268C360.354 107.268 349.948 97.2774 343.154 88.5776ZM340.359 90.7074L340.628 91.0594C347.216 99.4434 358.485 110.589 380.34 110.589C390.145 110.589 398.179 108.08 403.571 103.315C407.831 99.7006 410.339 94.421 410.455 88.8213C410.455 76.3852 401.603 68.3352 384.852 65.5375L371.372 63.3084C351.691 59.9783 341.293 50.1594 341.293 34.9166C341.293 19.1685 355.834 7.74321 375.856 7.74321C391.295 7.74321 404.164 13.5371 415.083 25.2692L415.523 25.7565L413.528 27.8683L413.106 27.39C402.654 15.8384 390.423 10.2431 375.712 10.2431C357.146 10.2431 344.178 20.3507 344.178 34.8083C344.178 48.6252 353.803 57.5145 372.037 60.5468L385.121 62.7128C403.616 65.7631 413.384 74.7698 413.384 88.7491C413.384 97.1691 406.402 113.116 379.954 113.116C362.879 113.116 349.399 106.546 338.768 93.0358L338.427 92.6026L340.359 90.7074ZM338.103 93.5322L337.807 93.1622L335.776 95.1295L336.135 95.5808C347.153 109.488 361.765 116.545 379.505 116.545C409.277 116.545 417.15 98.3424 417.15 88.713C417.15 72.6941 406.195 62.433 385.472 59.0487L372.81 56.9279C356.328 54.2566 347.971 46.7932 347.971 34.7542C347.971 22.3542 359.321 13.6905 375.568 13.6905C389.255 13.6905 400.668 19.0783 410.464 30.1606L410.913 30.684L412.98 28.491L412.512 27.9586C402.223 16.5965 390.19 11.0643 375.712 11.0643C357.613 11.0643 344.978 20.8381 344.978 34.8264C344.978 48.192 354.369 56.8557 372.136 59.7707L385.211 61.9457C404.146 65.0682 414.148 74.3276 414.148 88.7671C414.148 97.4579 406.995 113.91 379.918 113.91C362.61 113.91 348.887 107.25 338.103 93.5322ZM335.254 95.6079L335.578 96.014C346.757 110.102 361.531 117.24 379.496 117.24C409.825 117.24 417.842 98.577 417.842 88.7039C417.842 72.288 406.68 61.7922 385.571 58.3448L372.917 56.224C356.831 53.6158 348.654 46.3871 348.654 34.7452C348.654 22.7603 359.716 14.3854 375.55 14.3854C389.03 14.3854 400.264 19.701 409.915 30.6299L410.41 31.1984L408.28 33.4546L407.803 32.8951C398.673 22.264 388.078 17.147 375.425 17.147C368.163 17.147 362.071 18.9519 357.793 22.4445C354.022 25.3732 351.796 29.8767 351.754 34.6639C351.754 44.8709 358.943 50.9626 373.6 53.2458L385.849 55.3125C408.801 59.0668 420.951 70.5823 420.951 88.6498C420.951 99.4795 412.198 119.957 379.091 119.957C360.426 119.957 345.104 112.61 333.538 98.1167L333.161 97.6384L335.254 95.6079ZM330.914 100.653C339.227 111.022 354.252 123.377 378.651 123.377H378.66C415.101 123.377 424.725 100.626 424.716 88.5957C424.716 68.4796 411.38 55.7096 386.218 51.6485L374.391 49.645C361.513 47.6956 355.519 42.9035 355.519 34.5827C355.519 27.5886 361.648 20.5312 375.29 20.5312C386.901 20.5312 396.687 25.4587 405.17 35.6115L405.674 36.2072L407.866 33.8607L407.354 33.2561C398.332 22.7784 387.88 17.6884 375.416 17.6884C364.308 17.6884 352.356 22.986 352.356 34.6369C352.356 44.5641 359.312 50.4211 373.69 52.6863L385.939 54.7439C409.223 58.5163 421.535 70.2484 421.535 88.6498C421.535 99.687 412.656 120.561 379.073 120.561C360.219 120.561 344.726 113.134 333.044 98.4958L332.702 98.0626L330.519 100.156L330.914 100.653Z" fill="#997520"/>
<path fill-rule="evenodd" clip-rule="evenodd" d="M220.913 55.9269C224.591 37.289 240.885 23.8514 259.831 23.8308C270.377 23.7922 280.5 27.9868 287.942 35.4793C301.347 48.9058 303.429 69.958 292.914 85.763C282.4 101.568 262.216 107.725 244.706 100.469C227.196 93.2132 217.234 74.5648 220.913 55.9269ZM232.315 91.3007C247.526 106.568 272.196 106.589 287.434 91.3485C302.654 76.0475 302.654 51.2805 287.434 35.9795C272.196 20.7387 247.526 20.76 232.315 36.0273C217.104 51.2945 217.104 76.0335 232.315 91.3007Z" fill="#997520"/>
<path fill-rule="evenodd" clip-rule="evenodd" d="M292.441 34.7066C295.168 37.7488 298.23 41.4104 300.048 45.4546C301.947 49.6262 302.629 54.1895 303.092 58.1062C303.619 62.3871 304.001 66.9504 303.229 71.286C302.456 75.6217 300.521 79.7387 298.548 83.5278C296.704 87.1074 294.459 91.1606 291.178 94.4579C288.533 97.1184 285.164 99.0887 282.159 100.847C282.057 100.906 281.955 100.966 281.854 101.025C278.773 102.828 275.22 104.851 271.503 105.852C267.786 106.854 263.906 106.854 260.153 106.854H259.834C256.135 107.019 252.429 106.701 248.811 105.907C245.067 104.914 241.568 102.929 238.478 101.107C235.197 99.2216 231.871 97.3088 229.127 94.5581C226.382 91.8073 224.447 88.4463 222.574 85.1946C220.784 82.1251 218.758 78.5637 217.758 74.8383C216.758 71.113 216.758 67.2692 216.758 63.4528C216.758 59.6364 216.804 55.8017 217.794 52.0491C218.785 48.2964 220.766 44.7805 222.584 41.6837C224.474 38.3955 226.4 35.0528 229.127 32.3202C231.376 30.2281 233.865 28.4118 236.542 26.9098L238.124 25.9352C240.709 24.1875 243.491 22.7507 246.412 21.6543C249.334 20.8175 252.345 20.3343 255.381 20.2151L257.372 20.0512C260.442 19.6657 263.547 19.6443 266.623 19.9874C269.606 20.5567 272.513 21.4738 275.284 22.72L276.974 23.4395C279.923 24.4913 282.735 25.8918 285.353 27.6112C287.754 29.4721 289.926 31.6124 291.823 33.9871L292.441 34.7066ZM297.94 83.1999C300.184 78.8825 301.829 75.1753 302.547 71.1767C303.256 66.9322 302.883 62.4509 302.356 58.3612C301.875 54.4719 301.138 49.863 299.348 45.91C297.558 41.9569 294.586 38.35 291.86 35.3442L291.242 34.6247C289.378 32.2865 287.243 30.1797 284.88 28.349C282.327 26.666 279.581 25.296 276.701 24.2684L274.966 23.5579C272.255 22.3114 269.405 21.394 266.478 20.8254C265.301 20.652 264.113 20.5698 262.924 20.5795C261.089 20.5795 259.226 20.7343 257.408 20.8892L255.409 21.0531C252.438 21.1751 249.491 21.6459 246.63 22.4558C243.767 23.5357 241.04 24.948 238.505 26.6639L236.924 27.6385C234.299 29.1054 231.858 30.882 229.654 32.9305C227.038 35.5345 225.159 38.7979 223.387 41.8742C223.356 41.9292 223.324 41.9841 223.292 42.0389C221.493 45.1631 219.503 48.6516 218.54 52.2768C217.576 55.9019 217.576 59.7366 217.576 63.4619C217.576 67.1873 217.576 71.0037 218.549 74.6562C219.516 78.2914 221.501 81.7371 223.258 84.7868L223.283 84.8303C225.128 88.0364 227.073 91.3701 229.717 94.0298C232.354 96.6809 235.676 98.599 238.775 100.388L238.805 100.406C238.912 100.468 239.02 100.53 239.128 100.592C242.154 102.341 245.528 104.29 249.02 105.169C252.637 106.08 256.463 106.08 260.18 106.08H260.18H260.282C263.966 106.08 267.729 106.08 271.34 105.115C274.984 104.14 278.446 102.136 281.491 100.369C281.709 100.24 281.928 100.11 282.147 99.9805C285.146 98.2063 288.188 96.4069 290.669 93.9114C293.914 90.6961 296.122 86.6975 297.94 83.1999Z" fill="#997520"/>
<path fill-rule="evenodd" clip-rule="evenodd" d="M306.182 57.804C306.221 58.2825 306.26 58.7634 306.307 59.2443C306.373 59.9312 306.463 60.6301 306.577 61.3411L306.596 61.5271C306.987 65.3292 307.394 69.2827 306.631 73.0176C305.894 76.6276 304.113 79.9515 302.39 83.1681C302.302 83.3336 302.213 83.4989 302.125 83.6638C302.063 83.7774 302.001 83.8913 301.939 84.0055C301.665 84.5089 301.389 85.0173 301.125 85.5256L300.124 87.4325L300.078 87.521C298.344 90.865 296.54 94.3437 293.771 97.1298C291.401 99.3101 288.729 101.136 285.84 102.552C285.029 102.995 284.227 103.438 283.433 103.899C282.64 104.36 281.856 104.839 281.073 105.318L281.072 105.318C278.35 106.981 275.539 108.698 272.465 109.529C269.33 110.212 266.113 110.444 262.912 110.216H260.155C259.849 110.216 259.543 110.211 259.237 110.206C258.622 110.196 258.004 110.186 257.379 110.216C256.442 110.261 255.495 110.261 254.549 110.261C252.293 110.318 250.038 110.078 247.844 109.547C244.788 108.574 241.887 107.168 239.228 105.372C238.435 104.866 237.633 104.378 236.858 103.962C236.481 103.76 236.097 103.545 235.709 103.327C235.3 103.098 234.886 102.865 234.47 102.643C231.569 101.226 228.886 99.4004 226.503 97.2202C224.331 94.8379 222.511 92.1568 221.095 89.2581C220.654 88.4537 220.212 87.6494 219.753 86.8541C219.293 86.0588 218.815 85.2635 218.338 84.4772C216.679 81.7479 214.967 78.9281 214.138 75.8463C213.457 72.705 213.226 69.4823 213.453 66.2756V63.501V60.7265C213.219 57.5237 213.444 54.3038 214.12 51.1648C214.94 48.0649 216.643 45.2271 218.284 42.5158C218.788 41.7296 219.275 40.9343 219.69 40.148C219.917 39.7159 220.162 39.2783 220.407 38.8382C220.608 38.4776 220.811 38.1153 221.005 37.753C222.415 34.8431 224.237 32.1524 226.413 29.7638C228.474 27.8903 230.781 26.309 233.271 25.0643C234.136 24.5853 235.001 24.0973 235.867 23.5731C236.631 23.1098 237.375 22.6252 238.122 22.1382C238.221 22.0743 238.319 22.0103 238.417 21.9464C240.686 20.2759 243.172 18.9257 245.807 17.9337C248.498 17.2304 251.274 16.9079 254.053 16.9757C255.045 16.9576 256.063 16.9305 257.045 16.8763C257.91 16.8286 258.803 16.7458 259.674 16.6651C259.793 16.6541 259.911 16.6431 260.029 16.6323C262.815 16.2437 265.642 16.2437 268.428 16.6323C271.108 17.258 273.689 18.2525 276.097 19.5876C276.528 19.7821 276.959 19.9993 277.39 20.2165C277.861 20.4535 278.331 20.6905 278.801 20.898C279.402 21.1631 280.003 21.4121 280.604 21.6612C280.904 21.7857 281.204 21.9102 281.505 22.0367C284.19 22.9906 286.729 24.317 289.048 25.9771C291.108 27.7515 292.904 29.8118 294.383 32.0955C294.96 32.9089 295.564 33.7494 296.186 34.5537C296.448 34.8807 296.714 35.2039 296.978 35.5258C297.123 35.7021 297.268 35.878 297.411 36.054C299.944 39.1177 302.548 42.2809 304.017 45.8688C305.486 49.4567 305.811 53.3067 306.117 57.0301C306.139 57.2871 306.161 57.5452 306.182 57.804ZM301.377 83.2119C303.179 79.8952 305.036 76.4699 305.766 72.8007V72.8459C306.505 69.1405 306.09 65.2182 305.676 61.3862L305.459 59.2895L305.27 57.0663C304.964 53.388 304.648 49.6194 303.233 46.158C301.818 42.6966 299.25 39.5786 296.754 36.551C296.61 36.3751 296.465 36.1993 296.32 36.023C296.056 35.7011 295.79 35.3778 295.528 35.0508C295.067 34.4226 294.605 33.7839 294.148 33.1507C294.007 32.9549 293.866 32.7597 293.725 32.5655C292.29 30.348 290.552 28.3432 288.561 26.6097C286.297 25.002 283.823 23.7155 281.207 22.7868C280.987 22.6942 280.77 22.6032 280.554 22.5125C279.883 22.2315 279.219 21.9534 278.504 21.6391C277.757 21.3111 277.039 20.9551 276.326 20.6019C276.136 20.5074 275.945 20.4131 275.755 20.3196C273.421 19.0118 270.915 18.0412 268.311 17.4366C267.225 17.2462 266.124 17.1554 265.021 17.1655C263.399 17.1655 261.75 17.3191 260.137 17.4728C259.145 17.5722 258.136 17.6716 257.127 17.7258C256.117 17.78 255.09 17.8252 254.098 17.8252C251.396 17.7503 248.696 18.0545 246.078 18.729C243.508 19.6642 241.082 20.9539 238.868 22.5609C238.283 22.9454 237.664 23.3386 237.064 23.7192C236.804 23.8843 236.547 24.0471 236.299 24.2057C235.479 24.7299 234.578 25.227 233.677 25.715C231.24 26.9305 228.984 28.4786 226.971 30.3151C224.86 32.6479 223.096 35.275 221.735 38.1145C221.312 38.9279 220.87 39.7323 220.411 40.5276C219.951 41.3229 219.473 42.1182 218.996 42.9135L218.955 42.9803C217.355 45.6346 215.7 48.3789 214.922 51.3365C214.276 54.4002 214.06 57.5396 214.282 60.6632C214.327 61.6031 214.327 62.534 214.327 63.4649C214.327 63.9338 214.316 64.4095 214.304 64.8817C214.293 65.3471 214.282 65.8089 214.282 66.2575C214.062 69.385 214.283 72.528 214.94 75.5933C215.712 78.5059 217.262 81.0673 218.907 83.7862C218.951 83.8598 218.996 83.9334 219.041 84.0072C219.572 84.8026 220.032 85.6069 220.474 86.4022C220.609 86.6454 220.745 86.8903 220.883 87.1364C221.195 87.695 221.51 88.2596 221.816 88.8243C223.192 91.6627 224.961 94.2915 227.071 96.6327C229.401 98.7423 232.02 100.507 234.848 101.874C235.659 102.299 236.452 102.742 237.254 103.203C238.057 103.664 238.85 104.143 239.634 104.622C242.229 106.377 245.06 107.753 248.042 108.707C251.107 109.352 254.248 109.553 257.37 109.303H260.2H262.903C266.004 109.376 269.239 109.439 272.222 108.644C275.175 107.856 277.765 106.273 280.527 104.584L280.613 104.532C281.406 104.007 282.199 103.556 282.992 103.104L282.992 103.104C283.785 102.652 284.596 102.191 285.416 101.748L285.492 101.706C288.19 100.219 290.979 98.6818 293.158 96.4881C295.861 93.7678 297.646 90.3245 299.367 86.9987C299.692 86.357 300.025 85.7063 300.358 85.0827C300.692 84.4594 301.034 83.8361 301.376 83.2128L301.377 83.2119Z" fill="#997520"/>
<path fill-rule="evenodd" clip-rule="evenodd" d="M310.164 56.1429C310.191 57.3816 310.218 58.6629 310.307 59.9092C310.397 61.1653 310.532 62.4665 310.695 63.7226C310.713 63.9064 310.731 64.0906 310.75 64.2751C311.088 67.6297 311.438 71.1041 310.695 74.3675C309.91 77.8103 308.107 80.9008 306.305 83.9009C306.227 84.0302 306.149 84.1605 306.07 84.2916C305.49 85.2602 304.883 86.2723 304.367 87.2353C303.781 88.3287 303.213 89.4854 302.672 90.6059C301.131 93.7957 299.535 97.0669 296.984 99.6423C294.767 101.865 291.9 103.32 289.124 104.721C287.934 105.317 286.726 105.932 285.563 106.609C284.401 107.287 283.247 108.046 282.129 108.787C282.043 108.843 281.958 108.9 281.872 108.956C279.362 110.609 276.845 112.266 273.872 113.07C270.798 113.902 267.589 113.712 264.489 113.522C264.375 113.516 264.261 113.51 264.147 113.503C262.941 113.436 261.716 113.369 260.513 113.369C259.197 113.369 257.845 113.45 256.493 113.531C256.391 113.537 256.288 113.544 256.186 113.55C254.932 113.626 253.658 113.703 252.383 113.703C250.625 113.731 248.87 113.531 247.164 113.107C244.161 112.309 241.495 110.571 238.912 108.886L238.844 108.841L238.671 108.727C237.613 108.029 236.496 107.291 235.436 106.7C234.319 106.076 233.111 105.471 231.948 104.892C229.154 103.51 226.224 102.019 223.998 99.8049C221.799 97.6186 220.365 94.7802 218.975 92.0293L218.923 91.9252L218.921 91.9225C218.327 90.7396 217.723 89.5387 217.048 88.3649C216.445 87.318 215.771 86.2856 215.115 85.2803C215.035 85.1574 214.955 85.035 214.875 84.9129L214.789 84.7815C213.104 82.2314 211.409 79.665 210.594 76.6356C209.764 73.5542 209.954 70.3463 210.143 67.2287L210.148 67.1377C210.219 65.8881 210.296 64.5228 210.296 63.2436C210.296 61.9334 210.215 60.5508 210.134 59.2224C209.945 56.1139 209.755 52.8879 210.558 49.8607C211.36 46.8335 213.118 44.1316 214.812 41.5291L214.878 41.4298C215.588 40.3478 216.336 39.2093 216.949 38.1134C217.58 36.9838 218.175 35.782 218.751 34.6073C220.131 31.806 221.564 28.9143 223.826 26.6371C225.844 24.6142 228.446 23.2917 230.966 22.0109L231.038 21.9744L231.038 21.9743C232.254 21.3689 233.471 20.7635 234.643 20.0586C235.815 19.3538 236.96 18.5586 238.068 17.7815C238.124 17.7429 238.179 17.7044 238.235 17.6658C240.532 16.068 242.839 14.4634 245.559 13.6428C248.328 12.8074 251.248 12.9007 254.063 12.9906L254.113 12.9922C254.539 12.9922 254.972 12.9981 255.411 13.004C256.302 13.0161 257.213 13.0285 258.107 12.9922C259.373 12.9407 260.671 12.7997 261.941 12.6619C262.009 12.6545 262.077 12.6471 262.145 12.6397L262.211 12.6324C265.048 12.3184 267.981 11.9937 270.771 12.5855C273.527 13.3126 276.148 14.4813 278.532 16.0465C279.686 16.7152 280.966 17.429 282.084 17.9983C283.153 18.5427 284.353 19.0292 285.528 19.5053L285.69 19.5707C288.376 20.655 291.161 21.7846 293.397 23.6822C295.421 25.6131 297.125 27.8552 298.444 30.324C298.539 30.4795 298.635 30.6376 298.731 30.7973C299.353 31.8253 300.014 32.918 300.662 33.794C301.41 34.8061 302.23 35.8272 303.024 36.8121L303.191 37.0209C305.372 39.7443 307.57 42.489 308.775 45.7491C310.009 49.0926 310.091 52.6439 310.163 56.0868L310.164 56.1429ZM305.579 83.3938C307.33 80.4687 309.129 77.462 309.838 74.1687C310.604 70.8523 310.163 67.2739 309.721 63.831C309.709 63.7178 309.697 63.6042 309.685 63.4904C309.56 62.3331 309.434 61.1498 309.351 59.9815C309.261 58.6983 309.207 57.379 309.207 56.1139C309.135 52.7524 309.027 49.192 307.873 46.0654C306.719 42.9388 304.457 40.0924 302.257 37.3814C301.464 36.3965 300.635 35.3663 299.878 34.3362C299.126 33.2732 298.444 32.156 297.782 31.0707C297.729 30.9842 297.677 30.898 297.624 30.812C297.556 30.6991 297.488 30.5866 297.421 30.4747C296.044 28.1863 294.794 26.1101 292.766 24.3871C290.659 22.5977 287.979 21.5081 285.38 20.4518L285.302 20.4201C284.067 19.9231 282.832 19.4171 281.597 18.8206C280.371 18.2282 279.171 17.5288 278.015 16.8552L277.992 16.8417L277.958 16.822C275.501 15.3835 273.202 14.0378 270.537 13.4801C267.86 12.9199 264.975 13.2361 262.19 13.5524C260.847 13.697 259.441 13.8235 258.089 13.9139C256.737 14.0042 255.366 13.9591 254.032 13.9139C253.131 13.8506 252.23 13.8506 251.328 13.8506C249.449 13.8036 247.573 14.0289 245.757 14.5193C243.243 15.2737 241.025 16.8124 238.675 18.4422C238.632 18.472 238.589 18.5017 238.546 18.5315C237.419 19.3176 236.212 20.14 235.067 20.8448C233.922 21.5496 232.678 22.1822 231.461 22.7967C231.337 22.8619 231.212 22.9272 231.086 22.9926C228.748 24.2138 226.325 25.4794 224.502 27.3149C222.382 29.449 220.998 32.2252 219.671 34.8867C219.644 34.9412 219.617 34.9956 219.59 35.05C219.04 36.2338 218.463 37.4266 217.787 38.6013C217.111 39.7761 216.354 40.9418 215.624 42.0623C213.956 44.6106 212.243 47.2763 211.477 50.1408C210.713 52.9959 210.899 56.1203 211.079 59.1472L211.08 59.1772C211.087 59.2914 211.094 59.4056 211.101 59.52C211.176 60.7726 211.252 62.0354 211.252 63.2527C211.252 64.581 211.171 65.9636 211.089 67.2919C210.909 70.3372 210.747 73.5542 211.513 76.4097C212.279 79.2652 213.929 81.7773 215.678 84.425C215.776 84.5761 215.875 84.728 215.974 84.8806C216.623 85.8776 217.291 86.9032 217.877 87.9221C218.552 89.095 219.173 90.331 219.776 91.5311L219.779 91.5366L219.814 91.6062C221.173 94.2942 222.538 96.9954 224.683 99.1814C226.723 101.261 229.372 102.584 231.935 103.865C232.09 103.943 232.244 104.02 232.399 104.097C233.57 104.639 234.751 105.236 235.932 105.905C237.11 106.571 238.26 107.328 239.384 108.067L239.394 108.073C241.935 109.736 244.586 111.453 247.443 112.221C250.291 112.987 253.408 112.801 256.427 112.62L256.457 112.619C257.827 112.537 259.206 112.465 260.531 112.456C261.678 112.448 262.864 112.515 264.021 112.58C264.202 112.59 264.382 112.6 264.561 112.61C267.589 112.79 270.816 112.953 273.656 112.185C276.484 111.42 278.981 109.777 281.619 108.041L281.651 108.019C282.778 107.269 283.959 106.501 285.131 105.814C286.301 105.128 287.534 104.506 288.731 103.901L288.736 103.898L288.808 103.862C291.499 102.5 294.272 101.096 296.362 98.9917C298.8 96.5569 300.355 93.354 301.853 90.2709L301.879 90.2173C302.429 89.0878 302.988 87.9582 303.6 86.8106C304.143 85.7956 304.741 84.7947 305.328 83.8142C305.404 83.6861 305.48 83.5583 305.557 83.431L305.579 83.3938Z" fill="#997520"/>
<path fill-rule="evenodd" clip-rule="evenodd" d="M314.291 56.9124C314.241 58.3398 314.189 59.8012 314.254 61.2116C314.306 62.3572 314.428 63.5356 314.553 64.7401C314.602 65.206 314.65 65.6757 314.696 66.149L314.699 66.1788C315.122 69.5905 315.558 73.1179 314.777 76.4389C313.995 79.7617 312.065 82.6803 310.195 85.5082L310.182 85.5284L310.168 85.5493C309.289 86.888 308.358 88.3065 307.605 89.6624C306.88 90.9681 306.238 92.3898 305.615 93.7687L305.533 93.9499L305.521 93.9767C304.11 97.1004 302.652 100.33 300.181 102.823C297.939 105.069 294.983 106.439 292.113 107.769L292.073 107.787C290.595 108.473 289.1 109.222 287.676 109.999C286.621 110.574 285.595 111.289 284.592 111.988C284.242 112.231 283.895 112.473 283.55 112.706C283.443 112.781 283.335 112.856 283.228 112.932C280.749 114.664 278.258 116.406 275.261 117.22C272.135 118.068 268.847 117.761 265.666 117.463L265.538 117.452C264.002 117.311 262.417 117.165 260.9 117.165C259.413 117.165 257.902 117.307 256.368 117.45C256.257 117.461 256.146 117.471 256.035 117.481C254.386 117.635 252.702 117.788 251.035 117.788C249.517 117.812 248.002 117.636 246.53 117.265C243.534 116.492 240.904 114.661 238.375 112.901C238.303 112.851 238.232 112.801 238.16 112.752C237.835 112.53 237.505 112.301 237.172 112.069C236.149 111.359 235.099 110.629 234.079 110.044C232.78 109.298 231.348 108.643 229.958 108.008L229.791 107.932C226.88 106.605 223.817 105.179 221.556 102.931C219.312 100.701 217.947 97.7428 216.623 94.8756L216.592 94.8074C215.907 93.3361 215.168 91.8287 214.384 90.4025C213.799 89.3375 213.083 88.3027 212.383 87.2906C212.145 86.9474 211.91 86.6068 211.682 86.2685L211.564 86.1037C209.756 83.5686 207.952 81.0391 207.132 77.9734C206.294 74.8413 206.591 71.5467 206.888 68.3604L206.904 68.1857C207.044 66.6528 207.186 65.0886 207.186 63.5494C207.186 61.9518 207.033 60.291 206.879 58.6753C206.582 55.507 206.294 52.2125 207.087 49.1345C207.854 46.1553 209.668 43.5312 211.418 41.0004C211.476 40.9166 211.534 40.8328 211.591 40.7491C211.819 40.4136 212.056 40.0728 212.294 39.7291C212.999 38.7135 213.722 37.6718 214.294 36.6602C215.06 35.3063 215.745 33.8169 216.393 32.3637L216.422 32.3013C217.737 29.4053 219.095 26.4169 221.385 24.1137C223.463 22.0225 226.262 20.7141 228.921 19.4714C228.971 19.4482 229.02 19.4251 229.07 19.402C229.126 19.3757 229.182 19.3494 229.239 19.3231C230.655 18.6619 232.114 17.9805 233.448 17.1906C234.848 16.3262 236.205 15.3924 237.512 14.3924C237.618 14.3144 237.725 14.2361 237.832 14.1578C240.135 12.4701 242.49 10.7439 245.323 9.92443C248.259 9.07494 251.346 9.31505 254.338 9.54778L254.422 9.55435C256.006 9.70718 257.597 9.77948 259.188 9.77098C260.753 9.7262 262.397 9.52141 263.981 9.32422L264.017 9.31967C267.036 8.93154 270.171 8.54341 273.117 9.22038C276.062 9.89709 278.638 11.602 281.133 13.2532L281.135 13.2551C282.466 14.1689 283.843 15.0125 285.262 15.7825C286.603 16.481 288.092 17.0755 289.532 17.651L289.622 17.687C292.478 18.8243 295.542 20.088 297.731 22.0738C299.917 24.0566 301.321 26.7685 302.68 29.3916L302.686 29.4031C302.784 29.5904 302.881 29.7793 302.98 29.969C303.634 31.2332 304.309 32.5381 305.101 33.6996C305.96 34.9618 306.949 36.2079 307.906 37.415C307.962 37.4855 308.018 37.5558 308.074 37.626C308.132 37.6989 308.189 37.7717 308.247 37.8445C310.326 40.4615 312.41 43.0856 313.479 46.2822C314.578 49.5678 314.443 53.0609 314.308 56.4277C314.303 56.5887 314.297 56.7503 314.291 56.9124ZM309.407 84.9056C311.236 82.1435 313.119 79.2912 313.867 76.132C314.606 72.9458 314.182 69.4977 313.651 66.149L313.65 66.1428C313.452 64.529 313.245 62.8433 313.173 61.2387C313.108 59.7928 313.16 58.3031 313.21 56.855C313.216 56.694 313.222 56.5334 313.227 56.3736C313.353 53.088 313.452 49.5948 312.452 46.571C311.452 43.5472 309.38 40.9116 307.191 38.2037C307.106 38.098 307.021 37.992 306.936 37.8856C305.985 36.7015 304.999 35.473 304.173 34.2141C303.301 32.8779 302.55 31.4443 301.822 30.0519C301.782 29.9769 301.743 29.902 301.704 29.8273C301.654 29.7298 301.603 29.6326 301.553 29.5358C300.236 26.988 299.039 24.6735 296.956 22.7778C294.818 20.832 291.984 19.6982 289.238 18.5997L289.145 18.5626C288.968 18.4922 288.792 18.4223 288.615 18.3524C287.295 17.8297 285.973 17.3066 284.694 16.6219C283.244 15.8457 281.838 14.943 280.478 14.0404L280.464 14.031C277.937 12.3556 275.562 10.7807 272.775 10.1411C269.982 9.5002 266.946 9.8793 264.008 10.2584C263.748 10.2903 263.486 10.3236 263.223 10.357C261.849 10.5317 260.449 10.7097 259.08 10.7097C257.456 10.7231 255.832 10.6508 254.215 10.4931C252.828 10.3848 251.404 10.2765 250.008 10.2765C248.487 10.2516 246.971 10.4399 245.503 10.8361C242.871 11.5921 240.589 13.2555 238.183 15.0094C238.118 15.0564 238.054 15.1035 237.989 15.1506C236.654 16.1721 235.268 17.1241 233.836 18.0029C232.388 18.8303 230.9 19.5834 229.376 20.2595C226.592 21.5412 223.961 22.7598 221.97 24.7726C219.79 26.966 218.457 29.8995 217.177 32.7338L217.15 32.7945C216.492 34.2467 215.815 35.7406 215.024 37.1115C214.193 38.5431 213.291 39.9319 212.321 41.2726L212.29 41.3185C210.525 43.8857 208.704 46.5339 207.934 49.3963C207.162 52.2632 207.462 55.4792 207.75 58.5542L207.753 58.594L207.758 58.6383C207.909 60.2587 208.069 61.9573 208.069 63.5585C208.069 65.1742 207.916 66.844 207.762 68.4597L207.756 68.5313C207.478 71.6066 207.183 74.8814 207.979 77.7297C208.78 80.6 210.519 83.0823 212.384 85.7179C213.375 87.0719 214.348 88.4709 215.177 89.9332C216.006 91.3954 216.727 92.948 217.421 94.4463C217.463 94.5389 217.506 94.6312 217.549 94.7233C218.859 97.5502 220.066 100.157 222.187 102.272C224.367 104.448 227.28 105.772 230.107 107.058L230.142 107.074C231.601 107.733 233.061 108.428 234.511 109.222C235.591 109.813 236.62 110.524 237.63 111.222C237.977 111.461 238.321 111.699 238.665 111.93L238.749 111.988C241.299 113.748 243.922 115.558 246.773 116.326C249.656 117.102 252.882 116.804 255.963 116.506L256.082 116.495C257.675 116.345 259.318 116.191 260.918 116.191C262.522 116.191 264.18 116.344 265.774 116.497C268.874 116.786 272.18 117.084 275.036 116.281C277.892 115.478 280.379 113.735 283.009 111.867C284.361 110.874 285.739 109.899 287.208 109.069C288.676 108.238 290.217 107.516 291.713 106.821L291.787 106.787C294.688 105.436 297.433 104.158 299.524 102.046C301.875 99.6815 303.299 96.5224 304.677 93.4625C304.773 93.2502 304.869 93.0375 304.964 92.8246C305.523 91.5802 306.085 90.3283 306.785 89.1028C307.605 87.6676 308.506 86.2685 309.407 84.9056Z" fill="#997520"/>
<path fill-rule="evenodd" clip-rule="evenodd" d="M318.497 56.6695C318.289 58.5023 318.183 60.3454 318.18 62.1901C318.243 64.0723 318.419 65.9491 318.705 67.8104L318.707 67.8253C319.177 71.2382 319.663 74.7681 318.832 78.0901C317.999 81.417 315.927 84.3269 313.919 87.0464C312.812 88.5433 311.79 90.102 310.86 91.7149C309.996 93.3415 309.222 95.0151 308.544 96.7279C307.213 99.9278 305.838 103.227 303.368 105.711C301.072 108.03 297.927 109.38 294.889 110.684L294.88 110.688C293.123 111.406 291.41 112.226 289.75 113.145C288.12 114.14 286.551 115.232 285.053 116.417C284.978 116.474 284.903 116.531 284.828 116.588C282.271 118.526 279.721 120.458 276.557 121.321C273.311 122.206 269.895 121.787 266.586 121.38L266.549 121.376C264.728 121.119 262.894 120.968 261.056 120.922C259.188 120.968 257.323 121.125 255.473 121.394C253.567 121.676 251.645 121.837 249.718 121.874C248.315 121.894 246.916 121.729 245.556 121.385C242.371 120.533 239.602 118.475 236.942 116.49C234.067 114.129 230.819 112.266 227.332 110.978C224.237 109.691 220.962 108.277 218.645 105.965C216.329 103.654 214.98 100.508 213.677 97.4621C212.967 95.6969 212.148 93.9773 211.225 92.3132C210.235 90.6835 209.147 89.1154 207.968 87.6175C207.914 87.5461 207.86 87.4748 207.805 87.4035C205.86 84.8383 203.926 82.2894 203.063 79.1054C202.179 75.8421 202.6 72.4166 203.006 69.1074L203.009 69.0795C203.271 67.2531 203.422 65.4126 203.462 63.568C203.416 61.6959 203.259 59.8282 202.991 57.9748C202.566 54.6389 202.14 51.1942 202.991 48.0033C203.842 44.8124 205.896 42.0385 207.886 39.3734C209.036 37.8939 210.096 36.3471 211.062 34.7412C211.932 33.1235 212.706 31.4556 213.379 29.7463C214.664 26.6552 216.003 23.4552 218.392 21.0439C220.625 18.7888 223.682 17.4762 226.645 16.2039L226.689 16.1851C228.443 15.4809 230.151 14.6664 231.802 13.7466C233.414 12.7449 234.965 11.646 236.444 10.456C236.563 10.3644 236.682 10.2728 236.801 10.1812C239.249 8.29499 241.686 6.41755 244.723 5.57897C247.909 4.69966 251.257 5.08945 254.496 5.47019C256.295 5.72068 258.109 5.85693 259.925 5.87811C261.784 5.81241 263.636 5.63076 265.472 5.33421C268.702 4.87189 272.05 4.40051 275.19 5.18917C278.33 5.97783 281.036 7.94494 283.651 9.8486C285.126 10.9794 286.674 12.012 288.284 12.9398C289.907 13.7807 291.581 14.5194 293.297 15.1516C296.355 16.3482 299.658 17.6536 301.92 19.8745C304.182 22.0955 305.576 25.1141 306.897 28.033C307.634 29.7799 308.487 31.4757 309.448 33.1095C310.494 34.711 311.63 36.2515 312.851 37.7236C312.917 37.8064 312.983 37.8893 313.049 37.9721C315.127 40.5795 317.189 43.1656 318.162 46.3988C319.162 49.7177 318.826 53.225 318.502 56.6172L318.497 56.6695ZM313.129 86.3988C315.079 83.7134 317.088 80.9461 317.864 77.8273C318.642 74.6908 318.171 71.2551 317.71 67.9554C317.408 66.0586 317.217 64.1456 317.14 62.2263C317.136 60.342 317.244 58.4591 317.466 56.5879C317.782 53.2792 318.072 49.7347 317.167 46.7161C316.262 43.6974 314.208 41.1139 312.036 38.3944C310.793 36.8878 309.633 35.3142 308.562 33.6806C307.584 32.0064 306.713 30.2715 305.956 28.4863C305.911 28.3885 305.867 28.291 305.823 28.1939C304.538 25.3547 303.375 22.7852 301.205 20.6904C298.982 18.5438 295.95 17.3493 293.008 16.1901L292.926 16.1579C291.167 15.5132 289.451 14.7593 287.786 13.9007C286.14 12.9433 284.554 11.8868 283.035 10.737C280.511 8.85144 277.941 6.94779 274.946 6.20445C271.971 5.46605 268.79 5.91735 265.679 6.35878L265.617 6.36762C263.737 6.68297 261.839 6.87676 259.934 6.94779C258.063 6.93032 256.195 6.79103 254.342 6.53079C252.587 6.28831 250.82 6.14907 249.049 6.1138C247.672 6.09479 246.298 6.2656 244.968 6.62145C242.099 7.41917 239.638 9.31376 237.041 11.3171C235.528 12.5318 233.941 13.652 232.291 14.6712C230.603 15.6179 228.856 16.4536 227.06 17.1731C224.038 18.4694 221.197 19.6932 219.089 21.8144C216.86 24.0558 215.579 27.1129 214.334 30.0825L214.293 30.1815C213.608 31.9326 212.816 33.6401 211.922 35.2941C210.937 36.9369 209.853 38.5172 208.674 40.0261C206.746 42.6187 204.765 45.2929 203.95 48.3115C203.14 51.3158 203.548 54.6074 203.944 57.802L203.95 57.8479C204.227 59.7429 204.387 61.6532 204.43 63.568C204.418 65.442 204.285 67.3133 204.032 69.1702C203.615 72.3973 203.235 75.8602 204.032 78.8063C204.801 81.6516 206.608 84.0742 208.556 86.6864C208.625 86.7789 208.695 86.8717 208.764 86.9648C209.97 88.4973 211.082 90.1017 212.094 91.7693C213.033 93.4705 213.87 95.2262 214.6 97.027C214.658 97.1608 214.715 97.2941 214.772 97.427C216.024 100.346 217.178 103.035 219.342 105.186C221.604 107.434 224.708 108.73 227.703 109.981L227.703 109.981C229.448 110.667 231.149 111.461 232.797 112.356C234.438 113.345 236.018 114.432 237.53 115.61C240.109 117.541 242.778 119.526 245.791 120.342C248.793 121.155 252.091 120.744 255.282 120.347L255.319 120.342C257.211 120.064 259.118 119.904 261.029 119.862C262.91 119.9 264.786 120.055 266.648 120.324C269.87 120.75 273.308 121.122 276.258 120.324C279.206 119.527 281.729 117.616 284.397 115.596L284.402 115.592C287.41 113.106 290.802 111.129 294.446 109.736L294.491 109.717C297.542 108.4 300.438 107.151 302.59 104.986C304.89 102.7 306.225 99.5005 307.506 96.4313L307.548 96.329C308.239 94.5772 309.03 92.8671 309.919 91.2073C310.893 89.553 311.96 87.955 313.113 86.4209L313.129 86.3988Z" fill="#997520"/>
<path fill-rule="evenodd" clip-rule="evenodd" d="M322.725 56.9879C322.365 59.0111 322.159 61.0587 322.108 63.1132C322.144 65.2182 322.338 67.3175 322.689 69.3932L322.712 69.5482C323.222 72.9671 323.747 76.4788 322.87 79.7962C321.981 83.1637 319.739 86.0216 317.578 88.752C316.246 90.3636 315.032 92.07 313.947 93.8579C312.98 95.6714 312.148 97.5545 311.46 99.4917C310.189 102.786 308.773 106.29 306.385 108.702C304.016 111.096 300.717 112.423 297.526 113.706L297.453 113.735C293.4 115.098 289.661 117.265 286.46 120.107C283.755 122.273 280.95 124.503 277.682 125.413C274.289 126.336 270.707 125.801 267.249 125.285L267.189 125.276C265.179 124.924 263.146 124.717 261.107 124.657C259.018 124.721 256.937 124.937 254.88 125.303C252.757 125.684 250.609 125.903 248.453 125.959C247.122 125.975 245.794 125.816 244.504 125.485C241.155 124.594 238.295 122.355 235.572 120.188C232.457 117.43 228.811 115.339 224.86 114.045C221.583 112.78 218.08 111.36 215.674 108.966C213.268 106.573 211.943 103.232 210.663 100.001C209.921 97.9983 209.035 96.0516 208.013 94.1765C206.891 92.358 205.637 90.6241 204.264 88.9886C202.103 86.2673 199.879 83.4641 198.971 80.1875C198.052 76.7791 198.583 73.2 199.097 69.7358L199.108 69.6663C199.463 67.6394 199.669 65.5891 199.725 63.5319C199.666 61.4405 199.45 59.3565 199.08 57.2974L199.077 57.2755C198.552 53.8148 198.011 50.2549 198.899 46.8944C199.788 43.5269 202.021 40.669 204.191 37.9386C205.521 36.3254 206.734 34.6191 207.822 32.8327C208.784 31.0166 209.615 29.1339 210.309 27.1989C211.571 23.9042 212.978 20.4001 215.374 17.9882C217.771 15.5763 221.093 14.2384 224.316 12.9551C226.343 12.2119 228.313 11.3174 230.207 10.2793C232.02 9.15607 233.749 7.90287 235.381 6.52949C235.47 6.45807 235.559 6.38663 235.648 6.3152C238.262 4.21099 240.858 2.12121 244.159 1.22334C247.572 0.294993 251.167 0.831979 254.653 1.35986C256.66 1.70932 258.689 1.91311 260.726 1.96966C262.814 1.90842 264.895 1.6955 266.953 1.33256C270.402 0.804674 273.979 0.267689 277.328 1.15053C280.678 2.03337 283.528 4.28143 286.252 6.44757C287.859 7.78703 289.564 9.00396 291.353 10.0882C293.159 11.0635 295.038 11.8972 296.972 12.582C300.249 13.8562 303.753 15.276 306.159 17.6697C308.561 20.0607 309.886 23.3961 311.165 26.6147L311.169 26.6255C311.91 28.6322 312.796 30.5821 313.82 32.4595C314.941 34.2843 316.194 36.0242 317.569 37.6656C319.729 40.3778 321.944 43.1901 322.852 46.4667C323.778 49.8888 323.242 53.5021 322.725 56.9879ZM316.845 87.9669C318.913 85.3265 321.045 82.6028 321.863 79.4958V79.4776C322.689 76.3376 322.162 72.8791 321.618 69.4842C321.248 67.379 321.03 65.2498 320.964 63.1132C321.02 61.0013 321.229 58.8963 321.59 56.815C322.099 53.4384 322.616 49.9525 321.754 46.7488C320.928 43.6907 318.858 41.0786 316.67 38.3482C315.26 36.6713 313.977 34.8916 312.831 33.0238C311.78 31.1024 310.87 29.1069 310.107 27.0533C310.049 26.9073 309.992 26.7618 309.934 26.617C308.707 23.5203 307.588 20.696 305.342 18.4615C302.994 16.126 299.724 14.8612 296.551 13.6343L296.536 13.6286C294.551 12.9187 292.621 12.0608 290.763 11.062C288.931 9.94915 287.183 8.70188 285.534 7.33042L285.531 7.32735C282.881 5.22587 280.141 3.05233 277.011 2.2245C273.879 1.39639 270.421 1.92399 267.081 2.4336L267.08 2.43383C264.981 2.80828 262.857 3.0273 260.726 3.08914C258.62 3.02516 256.521 2.81532 254.444 2.46114C252.393 2.09891 250.317 1.88901 248.235 1.83314C246.946 1.81716 245.661 1.97326 244.413 2.29731C241.354 3.12554 238.758 5.20068 236.035 7.40323C234.358 8.80885 232.584 10.0924 230.724 11.244C228.807 12.3013 226.813 13.2139 224.761 13.9745C224.622 14.0299 224.484 14.0849 224.346 14.1398C221.25 15.3735 218.434 16.4958 216.2 18.7527C213.868 21.1096 212.597 24.4035 211.372 27.5794L211.371 27.5811C210.664 29.5709 209.812 31.5057 208.82 33.3697C207.727 35.2248 206.502 36.9981 205.153 38.6758C203.056 41.3334 200.896 44.0912 200.07 47.2312C199.244 50.3712 199.761 53.8297 200.269 57.1791C200.646 59.2836 200.867 61.413 200.932 63.5501C200.877 65.6624 200.665 67.7677 200.297 69.8483C200.281 69.9566 200.265 70.065 200.248 70.1735C199.763 73.4483 199.264 76.8135 200.142 79.9145C200.968 82.9726 203.038 85.5847 205.226 88.3151C206.636 89.992 207.919 91.7717 209.066 93.6395C210.114 95.562 211.024 97.5572 211.789 99.61C211.843 99.7459 211.896 99.8814 211.95 100.016C213.183 103.125 214.31 105.969 216.554 108.202C218.896 110.532 222.183 111.806 225.36 113.035C227.345 113.746 229.274 114.604 231.133 115.601C232.964 116.716 234.711 117.963 236.362 119.333L236.365 119.336C239.015 121.437 241.755 123.611 244.885 124.439C248.017 125.267 251.475 124.739 254.815 124.23L254.816 124.229C256.915 123.851 259.039 123.632 261.17 123.574C263.265 123.63 265.352 123.84 267.416 124.202C267.521 124.218 267.626 124.234 267.732 124.249C271.001 124.737 274.369 125.239 277.455 124.357C280.506 123.529 283.111 121.454 285.834 119.26C289.119 116.339 292.952 114.105 297.108 112.689C297.212 112.648 297.315 112.606 297.417 112.565C300.555 111.314 303.409 110.175 305.668 107.901C307.992 105.563 309.253 102.285 310.474 99.1109L310.489 99.0731C311.2 97.0867 312.056 95.1551 313.048 93.2936C314.161 91.4564 315.408 89.7041 316.779 88.0512L316.845 87.9669Z" fill="#997520"/>
<path d="M49.1302 60.2684C49.8747 60.2573 50.5733 60.622 50.9819 61.2352L51.7134 60.4781C51.1067 59.6675 50.1334 59.2034 49.1117 59.2376C47.2044 59.2376 45.6582 60.7609 45.6582 62.64C45.6582 64.5191 47.2044 66.0424 49.1117 66.0424C50.1498 66.0805 51.1415 65.6175 51.7689 64.8018L51.056 64.0265C50.3864 64.8981 49.1943 65.1981 48.1825 64.7496C47.1707 64.3012 46.6077 63.2233 46.8255 62.1515C47.0433 61.0797 47.9841 60.2984 49.0932 60.2684H49.1302Z" fill="#997520"/>
<path d="M60.5954 60.8586V59.9165H55.8427V66.0443H60.5954V65.1022H56.9912V63.3963H60.4274V62.4457H56.9912V60.8586H60.5954Z" fill="#997520"/>
<path d="M64.6693 59.9165V66.0443H68.7431V65.1022H65.7469V59.9165H64.6693Z" fill="#997520"/>
<path d="M76.2118 60.8586V59.9165H71.459V66.0443H76.2118V65.1022H72.6075V63.3963H76.0437V62.4457H72.6075V60.8586H76.2118Z" fill="#997520"/>
<path fill-rule="evenodd" clip-rule="evenodd" d="M85.5168 61.5376C85.5168 60.4173 84.5622 59.9165 83.1494 59.9165H80.2855V66.0443H83.3403C84.7818 66.0443 85.7173 65.3823 85.7173 64.3469C85.7098 63.7471 85.3469 63.1954 84.7627 62.8955C85.2606 62.5888 85.5456 62.0756 85.5168 61.5376ZM81.4311 60.8586H82.8439C83.6553 60.8586 84.3235 60.9859 84.3235 61.6394C84.3235 62.2929 83.703 62.4882 82.9012 62.4882H81.4311V60.8586ZM81.4311 65.1022H82.968H82.9775C83.8462 65.1022 84.4954 64.9155 84.4954 64.2535C84.4954 63.5915 83.8271 63.4048 83.0062 63.4048H81.4311V65.1022Z" fill="#997520"/>
<path fill-rule="evenodd" clip-rule="evenodd" d="M92.4163 59.9165C94.0201 59.9165 95.0511 60.6379 95.0511 61.9195C95.0979 62.7496 94.522 63.5073 93.6382 63.7782L95.2229 66.0443H93.8387L92.3877 63.9565H90.9653V66.0443H89.7911V59.9165H92.4163ZM90.9653 63.0059H92.2731C93.2564 63.0059 93.8769 62.6749 93.8769 61.928C93.8769 61.1811 93.2277 60.8586 92.2731 60.8586H90.9653V63.0059Z" fill="#997520"/>
<path fill-rule="evenodd" clip-rule="evenodd" d="M97.7355 66.0443H96.5808L99.0944 59.9165H100.187L102.692 66.0443H101.546L101.004 64.7458H98.2684L97.7355 66.0443ZM98.6769 63.7782H100.631L99.6451 61.3339L98.6769 63.7782Z" fill="#997520"/>
<path d="M108.688 66.0443V60.8586H110.839V59.9165H105.407V60.8586H107.491V66.0443H108.688Z" fill="#997520"/>
<rect x="114.913" y="59.9165" width="0.678969" height="6.12783" fill="#997520"/>
<path d="M123.984 64.2535L120.77 59.9165H119.666V66.0443H120.77V61.7243L123.984 66.0443H125.098V59.9165H123.984V64.2535Z" fill="#997520"/>
<path d="M134.603 64.767V62.4495H131.982V63.4623H133.493V64.4386C133.081 64.8 132.548 64.9922 132 64.9769C130.694 64.9895 129.624 63.9376 129.612 62.6274C129.599 61.3172 130.648 60.2449 131.955 60.2323C132.688 60.2159 133.377 60.5821 133.775 61.1995L134.485 60.4786C133.886 59.6663 132.926 59.2021 131.919 59.2378C130.044 59.2201 128.51 60.7295 128.492 62.6092C128.475 64.4888 129.98 66.0268 131.855 66.0444C132.916 66.053 133.924 65.5842 134.603 64.767Z" fill="#997520"/>
<path fill-rule="evenodd" clip-rule="evenodd" d="M522.36 69.3312H460.619V102.986H526.368V123.918H438.102V0.680664H523.666V21.7851H460.619V48.4896H522.36V69.3312ZM460.106 21.3048H522.558V18.4504H457.052V51.7971H521.667V48.9789H460.106V21.3048ZM522.558 17.8705H456.44V52.4042H521.667V55.1227H453.486V15.1158H522.558V17.8705ZM452.774 14.4361H522.558V11.7811H449.928V58.4845H521.667V55.8657H452.774V14.4361ZM525.323 122.776H439.228V1.75899H522.558V4.09688H441.786V120.466H525.323V122.776ZM442.795 119.469H525.323V117.05H445.452V7.53122H522.558V5.11178H442.795V119.469ZM525.323 116.171H446.361V8.44644H522.558V10.9656H449.108V113.642H525.323V116.171ZM449.928 112.863H525.323V110.244H452.774V61.9279H521.667V59.3H449.928V112.863ZM525.323 109.565H453.486V62.6438H521.667V65.3622H456.431V106.873H525.314L525.323 109.565ZM525.323 106.257V103.475L460.106 103.439V68.8147H521.667V65.9875H457.052V106.257H525.323Z" fill="#997520"/>
<path fill-rule="evenodd" clip-rule="evenodd" d="M565.069 20.4263H604.889C613.26 20.4263 620.066 27.9181 620.066 37.1121C620.066 46.3062 613.26 53.7889 604.889 53.7889H565.069V20.4263ZM565.612 53.2609H604.889C612.943 53.2609 619.541 45.9876 619.541 37.1121C619.541 28.2367 612.971 20.9542 604.889 20.9542H565.612V53.2609Z" fill="#997520"/>
<path fill-rule="evenodd" clip-rule="evenodd" d="M562.353 17.022H605.98C615.982 17.022 624.14 25.9215 624.14 36.7897C624.14 47.6579 616.009 56.5125 606.071 56.5125H562.353V17.022ZM562.986 55.8472H606.071C615.674 55.8472 623.489 47.2893 623.489 36.7537C623.489 26.2181 615.629 17.6512 605.98 17.6512H562.986V55.8472Z" fill="#997520"/>
<path fill-rule="evenodd" clip-rule="evenodd" d="M606.218 14.2983C617.97 14.2983 627.534 24.6817 627.534 37.457C627.534 50.2232 618.052 60.6066 606.446 60.5975H558.28V14.2983H606.218ZM559.036 59.8727H606.446C617.651 59.8727 626.814 49.8246 626.814 37.457C626.814 25.0894 617.587 15.0322 606.236 15.0322H559.036V59.8727Z" fill="#997520"/>
<path fill-rule="evenodd" clip-rule="evenodd" d="M607.495 0.680664C625.661 0.680664 640.435 16.8621 640.435 36.7798C640.435 56.6795 626.677 72.3465 608.952 72.8429L637.295 123.183H612.929L584.002 72.5812H566.69V123.237H544.7V0.680664H607.495ZM584.38 72.2292L612.911 122.109L616.15 122.136L586.062 69.4225H563.217V122.145H566.168V72.0938H584.308L584.38 72.2292ZM616.87 122.109L586.512 68.9261L586.422 68.7727H562.587V122.118H559.762V66.2819H588.195L620.01 122.145L616.87 122.109ZM588.699 65.7043L620.829 122.109H623.879L590.354 63.1051H556.316V122.073H559.015V65.5148H588.6L588.699 65.7043ZM556.271 62.2749V11.2848H606.658C619.434 11.2848 629.836 22.7192 629.836 36.7798C629.836 50.8405 619.56 62.2658 606.928 62.2658L556.271 62.2749ZM591.254 63.1051L624.788 122.109H627.73L595.609 65.4245H607.306C621.711 65.4245 633.003 52.844 633.003 36.7798C633.003 20.9774 621.306 8.12612 606.91 8.12612H552.789V122.109H555.434V10.4455H606.613C619.83 10.4455 630.627 22.268 630.627 36.7798C630.627 51.2917 619.974 63.1051 606.883 63.1051H591.254ZM628.756 122.109L597.165 66.3631H607.27C621.954 66.3631 633.903 53.0876 633.903 36.7798C633.903 20.472 621.792 7.15144 606.91 7.15144H551.853V122.109H549.316V4.96744H607.207C623.15 4.96744 636.134 19.2356 636.134 36.7798C636.134 54.6128 623.618 68.5832 607.647 68.5832H601.277L631.518 122.109H628.756ZM632.715 122.109H635.36L607 71.7419H607.98C625.562 71.7419 639.292 56.3817 639.292 36.7798C639.292 17.4939 625.031 1.80876 607.495 1.80876H545.843V122.154H548.281V3.92959H607.171C623.69 3.92959 637.133 18.658 637.133 36.7798C637.133 55.1904 624.167 69.6301 607.612 69.6301H603.023L632.715 122.109Z" fill="#997520"/>
</svg>
