<svg width="132" height="60" viewBox="0 0 132 60" fill="none" xmlns="http://www.w3.org/2000/svg">
<g id="Logo/Mannahouse">
<path id="Fill 2" fill-rule="evenodd" clip-rule="evenodd" d="M125.299 55.3786V50.1244C125.299 49.7917 125.325 49.5985 125.384 49.5416C125.442 49.488 125.643 49.4604 125.989 49.4604H129.309C129.562 49.4604 129.741 49.4112 129.845 49.3103C129.948 49.2107 130 49.0389 130 48.7939V46.335C130 46.0901 129.948 45.9178 129.845 45.8194C129.741 45.7206 129.562 45.6689 129.309 45.6689H125.989C125.643 45.6689 125.442 45.6402 125.384 45.5873C125.325 45.5315 125.299 45.3376 125.299 45.0046V41.0151C125.299 40.682 125.325 40.4885 125.384 40.4323C125.442 40.3768 125.643 40.3489 125.989 40.3489H129.309C129.562 40.3489 129.741 40.2993 129.845 40.2006C129.948 40.0996 130 39.9277 130 39.6846V37.2235C130 36.98 129.948 36.8089 129.845 36.7072C129.741 36.6087 129.562 36.5588 129.309 36.5588H121.841C121.586 36.5588 121.407 36.6087 121.304 36.7072C121.202 36.8089 121.148 36.98 121.148 37.2235V59.1698C121.148 59.3674 121.188 59.5249 121.269 59.634C121.351 59.746 121.425 59.8066 121.494 59.8169C121.564 59.8279 121.678 59.8345 121.841 59.8345H129.309C129.562 59.8345 129.741 59.7849 129.845 59.6839C129.948 59.5848 130 59.4126 130 59.1698V56.7083C130 56.466 129.948 56.2937 129.845 56.1931C129.741 56.094 129.562 56.0444 129.309 56.0444H125.989C125.643 56.0444 125.442 56.0165 125.384 55.9607C125.325 55.9048 125.299 55.7109 125.299 55.3786ZM113.728 44.3898C113.279 43.6914 113.056 43.0528 113.056 42.4766C113.056 41.9463 113.067 41.5523 113.089 41.2963C113.112 41.043 113.221 40.794 113.418 40.5483C113.615 40.3056 113.897 40.1833 114.265 40.1833C114.634 40.1833 114.916 40.3272 115.112 40.6155C115.309 40.9034 115.419 41.1807 115.441 41.4469C115.463 41.7135 115.474 42.0793 115.474 42.5431C115.474 42.7887 115.528 42.961 115.631 43.059C115.734 43.1582 115.913 43.2099 116.167 43.2099H118.899C119.359 43.2099 119.59 42.9323 119.59 42.3786C119.59 40.538 119.122 39.0802 118.19 38.0053C117.256 36.9308 115.89 36.3936 114.093 36.3936C112.41 36.3936 111.125 36.875 110.238 37.8378C109.349 38.8029 108.905 40.0606 108.905 41.6125C108.905 43.0094 109.119 44.179 109.544 45.1206C109.971 46.0618 110.979 47.4315 112.571 49.2262C113.586 50.3568 114.316 51.2723 114.766 51.9712C115.215 52.6674 115.441 53.3167 115.441 53.9167C115.441 54.4473 115.43 54.8403 115.406 55.0962C115.383 55.3503 115.273 55.5997 115.076 55.8446C114.882 56.0877 114.598 56.2104 114.23 56.2104C113.861 56.2104 113.579 56.0661 113.382 55.7782C113.188 55.4902 113.078 55.2123 113.056 54.9464C113.031 54.6794 113.02 54.314 113.02 53.8499C113.02 53.6049 112.969 53.4327 112.864 53.3346C112.761 53.2329 112.582 53.1834 112.33 53.1834H109.598C109.135 53.1834 108.905 53.4606 108.905 54.0151C108.905 55.8553 109.372 57.3128 110.306 58.3876C111.239 59.4618 112.605 60.0001 114.404 60.0001C116.087 60.0001 117.372 59.5179 118.259 58.5533C119.147 57.5897 119.59 56.3327 119.59 54.7804C119.59 53.3835 119.382 52.2143 118.969 51.2723C118.553 50.3308 117.549 48.9618 115.96 47.1649C114.923 46.013 114.178 45.0887 113.728 44.3898ZM106.014 58.4886C106.902 57.4784 107.347 55.7675 107.347 53.3512V37.2235C107.347 36.98 107.294 36.8089 107.19 36.7072C107.088 36.6087 106.909 36.5588 106.654 36.5588H103.889C103.634 36.5588 103.455 36.6087 103.352 36.7072C103.25 36.8089 103.196 36.98 103.196 37.2235V53.4823C103.196 54.4822 103.133 55.1847 103.006 55.5953C102.881 56.0058 102.538 56.2104 101.987 56.2104C101.595 56.2104 101.307 56.0833 101.122 55.8274C100.938 55.571 100.833 55.2901 100.811 54.9805C100.788 54.6688 100.777 54.1701 100.777 53.4823V37.2235C100.777 36.98 100.723 36.8089 100.621 36.7072C100.518 36.6087 100.339 36.5588 100.085 36.5588H97.3189C97.0642 36.5588 96.8859 36.6087 96.7828 36.7072C96.68 36.8089 96.6262 36.98 96.6262 37.2235V53.3512C96.6262 55.7675 97.0711 57.4784 97.9586 58.4886C98.8457 59.4966 100.19 60.0001 101.987 60.0001C103.784 60.0001 105.127 59.4966 106.014 58.4886ZM93.2194 58.4886C94.1065 57.4784 94.5495 55.7675 94.5495 53.3512V43.0418C94.5495 40.6258 94.1065 38.9153 93.2194 37.9047C92.3323 36.8967 90.9888 36.3936 89.1894 36.3936C87.3919 36.3936 86.0488 36.8967 85.1613 37.9047C84.2734 38.9153 83.8312 40.6258 83.8312 43.0418V53.3512C83.8312 55.7675 84.2734 57.4784 85.1613 58.4886C86.0488 59.4966 87.3919 60.0001 89.1894 60.0001C90.9888 60.0001 92.3323 59.4966 93.2194 58.4886ZM90.4007 53.4823C90.4007 54.4822 90.3381 55.1847 90.2106 55.5953C90.0834 56.0058 89.7439 56.2104 89.1894 56.2104C88.798 56.2104 88.5097 56.0833 88.3267 55.8274C88.1408 55.571 88.038 55.2901 88.0155 54.9805C87.9914 54.6688 87.9796 54.1701 87.9796 53.4823V42.9437C87.9796 41.9221 88.0426 41.2086 88.1698 40.798C88.2973 40.3878 88.6372 40.1833 89.1894 40.1833C89.5831 40.1833 89.8711 40.31 90.0544 40.5656C90.24 40.8197 90.3427 41.1032 90.3648 41.4124C90.3897 41.7238 90.4007 42.2342 90.4007 42.9437V53.4823ZM81.6316 59.634C81.7122 59.5249 81.7526 59.3674 81.7526 59.1698V37.2235C81.7526 36.98 81.7011 36.8089 81.598 36.7072C81.493 36.6087 81.3142 36.5588 81.0614 36.5588H78.2943C78.0419 36.5588 77.8628 36.6087 77.7578 36.7072C77.655 36.8089 77.6035 36.98 77.6035 37.2235V45.0046C77.6035 45.3376 77.5745 45.5315 77.5164 45.5873C77.458 45.6402 77.2571 45.6689 76.9104 45.6689H75.8732C75.5291 45.6689 75.3282 45.6402 75.2702 45.5873C75.2118 45.5315 75.1831 45.3376 75.1831 45.0046V37.2235C75.1831 36.98 75.1312 36.8089 75.0258 36.7072C74.9234 36.6087 74.7447 36.5588 74.4919 36.5588H71.7248C71.4724 36.5588 71.2933 36.6087 71.1882 36.7072C71.0855 36.8089 71.034 36.98 71.034 37.2235V59.1698C71.034 59.3674 71.0744 59.5249 71.1546 59.634C71.2352 59.746 71.3112 59.8066 71.3784 59.8169C71.4472 59.8279 71.5636 59.8345 71.7248 59.8345H74.4919C74.6531 59.8345 74.7672 59.8279 74.836 59.8169C74.9059 59.8066 74.9815 59.746 75.0617 59.634C75.1426 59.5249 75.1831 59.3674 75.1831 59.1698V50.1244C75.1831 49.7917 75.2118 49.5985 75.2702 49.5416C75.3282 49.488 75.5291 49.4604 75.8732 49.4604H76.9104C77.2571 49.4604 77.458 49.488 77.5164 49.5416C77.5745 49.5985 77.6035 49.7917 77.6035 50.1244V59.1698C77.6035 59.3674 77.644 59.5249 77.7245 59.634C77.8051 59.746 77.8807 59.8066 77.9502 59.8169C78.0171 59.8279 78.1332 59.8345 78.2943 59.8345H81.0614C81.2222 59.8345 81.3368 59.8279 81.4059 59.8169C81.475 59.8066 81.551 59.746 81.6316 59.634ZM69.3888 59.735C69.4912 59.6689 69.5206 59.5117 69.4736 59.269L65.4635 37.1566C65.4165 36.9139 65.3474 36.7523 65.2561 36.6748C65.1641 36.5977 64.9785 36.5588 64.7035 36.5588H62.1441C61.8669 36.5588 61.6836 36.5977 61.5896 36.6748C61.498 36.7523 61.4289 36.9139 61.3838 37.1566L57.3718 59.269C57.3492 59.4471 57.3676 59.5789 57.4233 59.6689C57.4814 59.7566 57.5459 59.8066 57.6127 59.8169C57.6822 59.8279 57.7987 59.8345 57.9599 59.8345H60.8297C61.0153 59.8345 61.1402 59.8279 61.2097 59.8169C61.2788 59.8066 61.3548 59.7614 61.4357 59.6839C61.5159 59.6064 61.5671 59.49 61.5896 59.3351L62.0055 56.7083C62.075 56.3756 62.1373 56.1821 62.1953 56.1259C62.2534 56.0705 62.4435 56.0444 62.7655 56.0444H64.0799C64.4041 56.0444 64.5939 56.0705 64.6497 56.1259C64.7081 56.1821 64.7726 56.3756 64.8398 56.7083L65.2561 59.3351C65.2779 59.49 65.3317 59.6064 65.4119 59.6839C65.4925 59.7614 65.5666 59.8066 65.6357 59.8169C65.7052 59.8279 65.8327 59.8345 66.0157 59.8345H68.8859C69.1162 59.8345 69.2834 59.8022 69.3888 59.735ZM64.2521 52.6674C64.2074 52.7236 64.0104 52.7515 63.6663 52.7515H63.1813C62.8346 52.7515 62.6402 52.7236 62.5932 52.6674C62.5463 52.6138 62.5463 52.4177 62.5932 52.0872L63.2841 47.6633C63.3089 47.5755 63.3532 47.5325 63.4227 47.5325C63.4918 47.5325 63.5388 47.5755 63.5613 47.6633L64.2521 52.0872C64.2987 52.4177 64.2987 52.6138 64.2521 52.6674ZM56.2811 59.6839C56.3838 59.5848 56.4354 59.4126 56.4354 59.1698V37.2235C56.4354 36.98 56.3838 36.8089 56.2811 36.7072C56.1761 36.6087 55.997 36.5588 55.7446 36.5588H52.9771C52.7246 36.5588 52.5455 36.6087 52.4428 36.7072C52.3378 36.8089 52.2862 36.98 52.2862 37.2235V46.5352C52.2862 46.5781 52.2687 46.6167 52.2351 46.6508C52.1992 46.6831 52.1591 46.6897 52.114 46.6659C52.067 46.6446 52.0334 46.5998 52.0094 46.5352L48.6561 36.991C48.54 36.7031 48.3097 36.5588 47.9633 36.5588H45.5445C45.2898 36.5588 45.1107 36.6087 45.0083 36.7072C44.9052 36.8089 44.8514 36.98 44.8514 37.2235V59.1698C44.8514 59.4126 44.9052 59.5848 45.0083 59.6839C45.1107 59.7849 45.2898 59.8345 45.5445 59.8345H48.3097C48.5644 59.8345 48.7431 59.7849 48.8459 59.6839C48.949 59.5848 49.0024 59.4126 49.0024 59.1698V49.9915C49.0024 49.9485 49.0181 49.9096 49.0544 49.8758C49.0876 49.8431 49.1277 49.8369 49.1747 49.8582C49.2216 49.882 49.2549 49.9246 49.2774 49.9915L52.6326 59.4342C52.7468 59.7012 52.9771 59.8345 53.3234 59.8345H55.7446C55.997 59.8345 56.1761 59.7849 56.2811 59.6839ZM42.6185 59.6839C42.7235 59.5848 42.7751 59.4126 42.7751 59.1698V37.2235C42.7751 36.98 42.7235 36.8089 42.6185 36.7072C42.5158 36.6087 42.3371 36.5588 42.0816 36.5588H39.3168C39.0643 36.5588 38.8856 36.6087 38.7806 36.7072C38.6775 36.8089 38.6259 36.98 38.6259 37.2235V46.5352C38.6259 46.5781 38.6084 46.6167 38.5721 46.6508C38.5389 46.6831 38.4988 46.6897 38.4518 46.6659C38.4071 46.6446 38.3712 46.5998 38.3491 46.5352L34.9938 36.991C34.88 36.7031 34.6498 36.5588 34.3026 36.5588H31.8823C31.6295 36.5588 31.4507 36.6087 31.3457 36.7072C31.2426 36.8089 31.1911 36.98 31.1911 37.2235V59.1698C31.1911 59.4126 31.2426 59.5848 31.3457 59.6839C31.4507 59.7849 31.6295 59.8345 31.8823 59.8345H34.6498C34.9018 59.8345 35.0809 59.7849 35.184 59.6839C35.2887 59.5848 35.3402 59.4126 35.3402 59.1698V49.9915C35.3402 49.9485 35.3582 49.9096 35.3918 49.8758C35.4273 49.8431 35.4678 49.8369 35.5124 49.8582C35.5594 49.882 35.5926 49.9246 35.6178 49.9915L38.9704 59.4342C39.0869 59.7012 39.3168 59.8345 39.6631 59.8345H42.0816C42.3371 59.8345 42.5158 59.7849 42.6185 59.6839ZM29.5463 59.735C29.649 59.6689 29.678 59.5117 29.6311 59.269L25.6209 37.1566C25.574 36.9139 25.5048 36.7523 25.4132 36.6748C25.3215 36.5977 25.1356 36.5588 24.861 36.5588H22.3016C22.024 36.5588 21.8411 36.5977 21.7471 36.6748C21.6555 36.7523 21.5863 36.9139 21.5413 37.1566L17.5292 59.269C17.5067 59.4471 17.5247 59.5789 17.5804 59.6689C17.6388 59.7566 17.7038 59.8066 17.7706 59.8169C17.8397 59.8279 17.9562 59.8345 18.117 59.8345H20.9872C21.1724 59.8345 21.298 59.8279 21.3671 59.8169C21.4363 59.8066 21.5123 59.7614 21.5928 59.6839C21.6734 59.6064 21.7246 59.49 21.7471 59.3351L22.163 56.7083C22.2325 56.3756 22.2947 56.1821 22.3528 56.1259C22.4108 56.0705 22.601 56.0444 22.9229 56.0444H24.2374C24.5616 56.0444 24.7514 56.0705 24.8075 56.1259C24.8652 56.1821 24.9301 56.3756 24.9973 56.7083L25.4132 59.3351C25.4353 59.49 25.4892 59.6064 25.5698 59.6839C25.6503 59.7614 25.7237 59.8066 25.7932 59.8169C25.8623 59.8279 25.9895 59.8345 26.1731 59.8345H29.043C29.2736 59.8345 29.4413 59.8022 29.5463 59.735ZM24.4092 52.6674C24.3645 52.7236 24.1683 52.7515 23.8238 52.7515H23.3388C22.9924 52.7515 22.7981 52.7236 22.7507 52.6674C22.7037 52.6138 22.7037 52.4177 22.7507 52.0872L23.4415 47.6633C23.466 47.5755 23.511 47.5325 23.5805 47.5325C23.6493 47.5325 23.6962 47.5755 23.7188 47.6633L24.4092 52.0872C24.4562 52.4177 24.4562 52.6138 24.4092 52.6674ZM15.9017 59.1698V37.2235C15.9017 36.98 15.8505 36.8089 15.7455 36.7072C15.6424 36.6087 15.4636 36.5588 15.2089 36.5588H12.7901C12.4437 36.5588 12.2249 36.6686 12.1329 36.8922L9.0885 45.6689C9.06635 45.7353 9.01899 45.7699 8.95216 45.7699C8.88304 45.7699 8.83607 45.7353 8.81392 45.6689L5.76918 36.9565C5.67752 36.6921 5.45832 36.5588 5.11196 36.5588H2.6935C2.4384 36.5588 2.2593 36.6087 2.15695 36.7072C2.05385 36.8089 2 36.98 2 37.2235V59.1698C2 59.4126 2.05385 59.5848 2.15695 59.6839C2.2593 59.7849 2.4384 59.8345 2.6935 59.8345H5.45832C5.71304 59.8345 5.89214 59.7849 5.99487 59.6839C6.09759 59.5848 6.15144 59.4126 6.15144 59.1698V49.9915C6.15144 49.9485 6.16213 49.914 6.18466 49.8927C6.2767 49.8258 6.33474 49.8475 6.35689 49.9591L7.46359 53.0181C7.55715 53.3273 7.80995 53.4823 8.22582 53.4823H9.57349C10.0585 53.4823 10.3449 53.3273 10.4388 53.0181L11.5451 49.9591C11.5451 49.914 11.5673 49.882 11.6146 49.8582C11.7059 49.8369 11.7506 49.882 11.7506 49.9915V59.1698C11.7506 59.6123 11.9832 59.8345 12.4437 59.8345H15.2089C15.6718 59.8345 15.9017 59.6123 15.9017 59.1698Z" fill="#EF4123"/>
<path id="Fill 4" fill-rule="evenodd" clip-rule="evenodd" d="M65.9613 24.5902L34.043 4.7765L2.1525 24.5712L0 21.1307L34.043 0L65.961 19.8133L97.8678 0.00113835L132 21.1193L129.852 24.5628L97.8713 4.77574L65.9613 24.5902Z" fill="#EF4123"/>
</g>
</svg>
